{
  "accessors": [
    {
      "bufferView": 2,
      "componentType": 5126,
      "count": 65532,
      "max": [
        12870.728515625,
        14336.7783203125,
        12239.2431640625
      ],
      "min": [
        1340.765625,
        0,
        0
      ],
      "type": "VEC3"
    },
    {
      "bufferView": 2,
      "byteOffset": 786384,
      "componentType": 5126,
      "count": 65532,
      "max": [
        0.99997532367706299,
        0.99999701976776123,
        0.99998050928115845
      ],
      "min": [
        -0.99998128414154053,
        -0.99999719858169556,
        -0.99999839067459106
      ],
      "type": "VEC3"
    },
    {
      "bufferView": 3,
      "componentType": 5126,
      "count": 65532,
      "max": [
        0.98685282468795776,
        0.99998819828033447,
        0.99997341632843018,
        1
      ],
      "min": [
        -0.99999290704727173,
        -0.99745482206344604,
        -0.99999696016311646,
        -1
      ],
      "type": "VEC4"
    },
    {
      "bufferView": 1,
      "componentType": 5126,
      "count": 65532,
      "max": [
        0.98904502391815186,
        0.9900209903717041
      ],
      "min": [
        0.0039389999583363533,
        0.0039420002140104771
      ],
      "type": "VEC2"
    },
    {
      "bufferView": 0,
      "componentType": 5125,
      "count": 344667,
      "max": [
        65531
      ],
      "min": [
        0
      ],
      "type": "SCALAR"
    },
    {
      "bufferView": 2,
      "byteOffset": 1572768,
      "componentType": 5126,
      "count": 65532,
      "max": [
        12362.66015625,
        27848.734375,
        14128.65234375
      ],
      "min": [
        405.896484375,
        320.5546875,
        1274.318359375
      ],
      "type": "VEC3"
    },
    {
      "bufferView": 2,
      "byteOffset": 2359152,
      "componentType": 5126,
      "count": 65532,
      "max": [
        0.99995005130767822,
        0.99999469518661499,
        0.99997031688690186
      ],
      "min": [
        -0.99996525049209595,
        -0.99996089935302734,
        -0.99999785423278809
      ],
      "type": "VEC3"
    },
    {
      "bufferView": 3,
      "byteOffset": 1048512,
      "componentType": 5126,
      "count": 65532,
      "max": [
        0.99972254037857056,
        0.99999833106994629,
        0.99631690979003906,
        1
      ],
      "min": [
        -0.9999927282333374,
        -0.99989610910415649,
        -0.99994939565658569,
        -1
      ],
      "type": "VEC4"
    },
    {
      "bufferView": 1,
      "byteOffset": 524256,
      "componentType": 5126,
      "count": 65532,
      "max": [
        0.99803102016448975,
        0.9900209903717041
      ],
      "min": [
        0.0039389999583363533,
        0.0039420002140104771
      ],
      "type": "VEC2"
    },
    {
      "bufferView": 0,
      "byteOffset": 1378668,
      "componentType": 5125,
      "count": 339927,
      "max": [
        65531
      ],
      "min": [
        0
      ],
      "type": "SCALAR"
    },
    {
      "bufferView": 2,
      "byteOffset": 3145536,
      "componentType": 5126,
      "count": 65532,
      "max": [
        12535.5400390625,
        27632.017578125,
        14136.63671875
      ],
      "min": [
        0,
        13896.8369140625,
        1380.466796875
      ],
      "type": "VEC3"
    },
    {
      "bufferView": 2,
      "byteOffset": 3931920,
      "componentType": 5126,
      "count": 65532,
      "max": [
        0.99998092651367188,
        0.99997973442077637,
        0.99999338388442993
      ],
      "min": [
        -0.99996638298034668,
        -0.99986577033996582,
        -0.99999785423278809
      ],
      "type": "VEC3"
    },
    {
      "bufferView": 3,
      "byteOffset": 2097024,
      "componentType": 5126,
      "count": 65532,
      "max": [
        0.99403780698776245,
        0.99998515844345093,
        0.99997758865356445,
        1
      ],
      "min": [
        -0.99999910593032837,
        -0.99585986137390137,
        -0.99999827146530151,
        -1
      ],
      "type": "VEC4"
    },
    {
      "bufferView": 1,
      "byteOffset": 1048512,
      "componentType": 5126,
      "count": 65532,
      "max": [
        0.98916798830032349,
        0.99802899360656738
      ],
      "min": [
        0.0039389999583363533,
        0.0039420002140104771
      ],
      "type": "VEC2"
    },
    {
      "bufferView": 0,
      "byteOffset": 2738376,
      "componentType": 5125,
      "count": 337731,
      "max": [
        65531
      ],
      "min": [
        0
      ],
      "type": "SCALAR"
    },
    {
      "bufferView": 2,
      "byteOffset": 4718304,
      "componentType": 5126,
      "count": 35548,
      "max": [
        7312.2578125,
        28222.109375,
        14410.615234375
      ],
      "min": [
        74.423828125,
        14002.9443359375,
        6876.58984375
      ],
      "type": "VEC3"
    },
    {
      "bufferView": 2,
      "byteOffset": 5144880,
      "componentType": 5126,
      "count": 35548,
      "max": [
        0.99727386236190796,
        0.99998962879180908,
        0.99998503923416138
      ],
      "min": [
        -0.99990385770797729,
        -0.99987834692001343,
        -0.95908927917480469
      ],
      "type": "VEC3"
    },
    {
      "bufferView": 3,
      "byteOffset": 3145536,
      "componentType": 5126,
      "count": 35548,
      "max": [
        0.98091936111450195,
        0.99998188018798828,
        0.99680215120315552,
        1
      ],
      "min": [
        -0.99995929002761841,
        -0.99755978584289551,
        -0.99999237060546875,
        -1
      ],
      "type": "VEC4"
    },
    {
      "bufferView": 1,
      "byteOffset": 1572768,
      "componentType": 5126,
      "count": 35548,
      "max": [
        0.99618399143218994,
        0.99519497156143188
      ],
      "min": [
        0.0039389999583363533,
        0.0039420002140104771
      ],
      "type": "VEC2"
    },
    {
      "bufferView": 0,
      "byteOffset": 4089300,
      "componentType": 5125,
      "count": 177765,
      "max": [
        35547
      ],
      "min": [
        0
      ],
      "type": "SCALAR"
    }
  ],
  "asset": {
    "extras": {
      "author": "Geoffrey Marchal (https://sketchfab.com/geoffreymarchal)",
      "license": "CC-BY-4.0 (http://creativecommons.org/licenses/by/4.0/)",
      "source": "https://sketchfab.com/models/03d7639ecbe943bba20b22ba1f9746d3",
      "title": "Marcus Aurelius"
    },
    "generator": "Sketchfab-3.18.6",
    "version": "2.0"
  },
  "bufferViews": [
    {
      "buffer": 0,
      "byteLength": 4800360,
      "byteOffset": 0,
      "name": "floatBufferViews",
      "target": 34963
    },
    {
      "buffer": 0,
      "byteLength": 1857152,
      "byteOffset": 4800360,
      "byteStride": 8,
      "name": "floatBufferViews",
      "target": 34962
    },
    {
      "buffer": 0,
      "byteLength": 5571456,
      "byteOffset": 6657512,
      "byteStride": 12,
      "name": "floatBufferViews",
      "target": 34962
    },
    {
      "buffer": 0,
      "byteLength": 3714304,
      "byteOffset": 12228968,
      "byteStride": 16,
      "name": "floatBufferViews",
      "target": 34962
    }
  ],
  "buffers": [
    {
      "byteLength": 15943272,
      "uri": "scene.bin"
    }
  ],
  "images": [
    {
      "uri": "textures/Material_0_baseColor.jpeg"
    }
  ],
  "materials": [
    {
      "doubleSided": true,
      "emissiveFactor": [
        0,
        0,
        0
      ],
      "name": "Material_0",
      "pbrMetallicRoughness": {
        "baseColorFactor": [
          1,
          1,
          1,
          1
        ],
        "baseColorTexture": {
          "index": 0,
          "texCoord": 0
        },
        "metallicFactor": 0,
        "roughnessFactor": 0.53487042679999997
      }
    }
  ],
  "meshes": [
    {
      "primitives": [
        {
          "attributes": {
            "NORMAL": 1,
            "POSITION": 0,
            "TANGENT": 2,
            "TEXCOORD_0": 3
          },
          "indices": 4,
          "material": 0,
          "mode": 4
        }
      ]
    },
    {
      "primitives": [
        {
          "attributes": {
            "NORMAL": 6,
            "POSITION": 5,
            "TANGENT": 7,
            "TEXCOORD_0": 8
          },
          "indices": 9,
          "material": 0,
          "mode": 4
        }
      ]
    },
    {
      "primitives": [
        {
          "attributes": {
            "NORMAL": 11,
            "POSITION": 10,
            "TANGENT": 12,
            "TEXCOORD_0": 13
          },
          "indices": 14,
          "material": 0,
          "mode": 4
        }
      ]
    },
    {
      "primitives": [
        {
          "attributes": {
            "NORMAL": 16,
            "POSITION": 15,
            "TANGENT": 17,
            "TEXCOORD_0": 18
          },
          "indices": 19,
          "material": 0,
          "mode": 4
        }
      ]
    }
  ],
  "nodes": [
    {
      "children": [
        1
      ],
      "name": "RootNode (gltf orientation matrix)",
      "rotation": [
        -0.70710678118654746,
        -0,
        -0,
        0.70710678118654757
      ]
    },
    {
      "children": [
        2
      ],
      "matrix": [
        0.084425866603851318,
        0.99214720726013184,
        0.092282965779304504,
        0,
        0,
        -0.092613615095615387,
        0.99570214748382568,
        0,
        0.99642974138259888,
        -0.084063015878200531,
        -0.0078189847990870476,
        0,
        1956.7298583984375,
        6015.26953125,
        -7611.26513671875,
        1
      ],
      "name": "RootNode (model correction matrix)"
    },
    {
      "children": [
        3,
        4,
        5,
        6
      ],
      "matrix": [
        1,
        0,
        0,
        0,
        0,
        1,
        0,
        0,
        0,
        0,
        1,
        0,
        -18434.630859375,
        -18502.203125,
        -20194.615234375,
        1
      ],
      "name": "marcusyy.obj.cleaner.gles"
    },
    {
      "mesh": 0,
      "name": ""
    },
    {
      "mesh": 1,
      "name": ""
    },
    {
      "mesh": 2,
      "name": ""
    },
    {
      "mesh": 3,
      "name": ""
    }
  ],
  "samplers": [
    {
      "magFilter": 9729,
      "minFilter": 9987,
      "wrapS": 10497,
      "wrapT": 10497
    }
  ],
  "scene": 0,
  "scenes": [
    {
      "name": "OSG_Scene",
      "nodes": [
        0
      ]
    }
  ],
  "textures": [
    {
      "sampler": 0,
      "source": 0
    }
  ]
}

